<!--?xml version="1.0" standalone="no"?--><svg version="1.0" xmlns="http://www.w3.org/2000/svg" width="300.000000pt" height="271.000000pt" viewBox="0 0 300.000000 271.000000" preserveAspectRatio="xMidYMid meet">
<metadata>
  <rdf:rdf xmlns:rdf="http://www.w3.org/1999/02/22-rdf-syntax-ns#" xmlns:rdfs="http://www.w3.org/2000/01/rdf-schema#" xmlns:dc="http://purl.org/dc/elements/1.1/">
    <rdf:description dc:title="delivery motorcycle clipart" dc:publisher="Hiox" dc:date="2015-03-14" dc:format="image/svg+xml" dc:language="en">
      <dc:creator>
        <rdf:bag>
          <rdf:li>svgimages.com</rdf:li>
        </rdf:bag>
      </dc:creator>
    </rdf:description>
  </rdf:rdf>
</metadata>
<g transform="translate(0.000000,271.000000) scale(0.100000,-0.100000)" fill="#171717" stroke="none">
<path d="M1648 2701 c-56 -18 -119 -87 -134 -145 -7 -30 -37 -46 -83 -46 -16
0 -34 -6 -40 -14 -17 -21 6 -34 72 -42 l57 -7 0 -48 c0 -26 -5 -51 -11 -55
-17 -10 -3 -91 27 -149 37 -72 65 -95 121 -95 l46 0 -7 -52 c-4 -29 -23 -86
-42 -125 -20 -40 -39 -85 -43 -100 -7 -25 -22 -32 -192 -90 -101 -34 -197 -63
-214 -63 -16 -1 -46 -7 -65 -14 -30 -10 -39 -10 -60 3 -21 13 -24 23 -22 53 2
25 11 43 25 53 22 16 38 97 29 156 -6 42 -51 41 -87 -3 -27 -32 -28 -34 -21
-135 l6 -103 -33 0 c-77 0 -156 -78 -157 -155 0 -24 10 -57 24 -82 l24 -41
-24 -23 c-71 -66 -183 -281 -155 -298 11 -7 10 -13 -3 -34 -15 -23 -20 -24
-54 -15 -20 6 -78 13 -129 15 -77 4 -103 1 -160 -18 -74 -24 -131 -59 -178
-108 -36 -39 -25 -51 50 -51 l50 0 -60 -38 c-145 -92 -213 -231 -203 -413 4
-70 11 -100 36 -154 39 -83 125 -171 213 -216 63 -34 66 -34 194 -34 128 0
131 1 194 34 129 67 231 203 247 328 6 53 7 53 22 31 25 -37 63 -69 76 -65 7
3 10 26 8 67 -2 35 0 60 5 57 5 -3 21 -30 36 -60 52 -102 107 -135 225 -137
23 0 55 -8 69 -17 23 -15 57 -19 218 -21 192 -4 298 6 322 31 8 8 28 11 48 9
29 -4 42 -14 80 -67 112 -158 272 -223 465 -190 120 20 254 128 312 251 31 66
33 75 33 186 l0 117 22 -21 c47 -44 142 -17 101 29 -9 10 -33 62 -53 117 -20
54 -45 112 -56 130 -24 40 -24 44 5 39 13 -3 33 0 45 6 18 10 21 21 21 77 0
68 -17 115 -47 133 -14 8 0 10 54 11 51 0 76 4 87 16 14 13 16 61 16 369 0
308 -2 356 -16 369 -13 14 -64 16 -407 16 -216 0 -397 -4 -403 -8 -31 -20 -34
-55 -34 -340 0 -242 -2 -291 -14 -295 -32 -13 -63 92 -36 119 7 7 5 39 -6 100
-93 512 -125 652 -157 686 -52 55 -52 54 -11 98 42 44 84 115 84 141 0 9 9 19
20 22 16 4 20 13 20 49 0 41 -18 107 -42 152 -16 31 -73 81 -116 102 -42 20
-189 29 -234 15z m184 -21 c28 0 90 -34 119 -67 37 -39 81 -143 62 -143 -5 0
-16 22 -26 49 -30 86 -104 138 -219 154 -43 6 -83 -16 -59 -32 8 -5 35 -12 60
-16 80 -12 171 -80 171 -127 0 -23 5 -23 -215 11 -195 29 -197 30 -189 55 11
33 56 86 89 104 33 17 165 32 180 20 5 -4 17 -8 27 -8z m-267 -250 c-18 -8
-17 -9 7 -9 14 -1 35 -4 45 -7 16 -5 16 -4 -2 11 -20 16 -20 16 5 11 14 -3 58
-11 98 -17 39 -7 72 -16 72 -21 0 -26 -85 -193 -118 -233 -36 -44 -47 -47 -76
-24 -33 26 -33 45 0 53 20 5 24 10 16 18 -8 8 -18 7 -35 -5 l-24 -16 -18 60
c-15 47 -16 64 -7 84 7 14 12 44 12 65 0 35 3 40 23 39 21 0 21 -1 2 -9z m325
-134 c0 -19 -7 -42 -16 -51 -9 -8 -13 -22 -10 -30 4 -10 -9 -25 -40 -44 -26
-16 -41 -30 -35 -32 6 -2 -9 -4 -34 -5 -43 -1 -57 8 -35 21 5 3 26 34 46 68
46 80 72 107 101 107 20 0 23 -5 23 -34z m-34 -141 c-11 -8 -25 -15 -30 -15
-6 0 -2 7 8 15 11 8 25 15 30 15 6 0 2 -7 -8 -15z m-96 -85 c-22 -22 -42 -40
-44 -40 -8 0 8 45 19 56 10 10 32 19 58 23 4 0 -11 -17 -33 -39z m140 5 c0
-16 -6 -25 -15 -25 -9 0 -15 9 -15 25 0 16 6 25 15 25 9 0 15 -9 15 -25z
m1070 -265 c6 -11 10 -44 8 -73 l-3 -52 -162 -3 c-161 -2 -162 -2 -165 20 -2
19 -9 23 -38 23 -29 0 -36 -4 -38 -22 -3 -23 -4 -23 -203 -23 l-199 0 0 56 c0
102 -34 94 405 94 376 0 385 0 395 -20z m-1917 -169 c29 -11 34 -30 16 -59
-16 -25 32 -102 62 -102 16 0 19 -5 15 -20 -3 -11 -9 -29 -12 -40 -6 -24 -72
-60 -109 -60 -31 0 -92 25 -117 47 -14 12 -15 20 -6 36 17 33 38 118 38 159 0
57 34 69 113 39z m1517 -11 c5 -21 12 -25 40 -25 31 0 35 3 38 28 l3 27 162
-2 162 -3 3 -257 c2 -223 0 -258 -14 -272 -22 -22 -211 -23 -240 -1 -15 12
-66 14 -275 15 l-257 0 -7 38 c-9 44 -18 450 -11 469 5 11 44 13 198 11 l192
-3 6 -25z m-1310 -16 c11 -31 10 -37 -6 -49 -16 -11 -24 -11 -53 1 -18 8 -41
14 -51 14 -40 0 -29 -57 15 -79 16 -8 17 -10 3 -10 -51 -2 -83 46 -67 103 7
27 16 37 37 42 15 3 32 7 37 9 6 2 24 4 42 4 27 1 33 -3 43 -35z m-343 -11
c-3 -10 -5 -4 -5 12 0 17 2 24 5 18 2 -7 2 -21 0 -30z m-48 -61 c-12 -49 -29
-62 -29 -21 0 22 29 83 36 76 2 -2 -1 -27 -7 -55z m26 -42 c-9 -27 -19 -50
-21 -50 -3 0 -3 8 0 18 3 9 10 37 17 62 6 25 14 39 16 33 3 -7 -3 -35 -12 -63z
m305 39 c0 -5 -9 -9 -20 -9 -11 0 -20 6 -20 14 0 9 7 12 20 9 11 -3 20 -9 20
-14z m394 -25 c3 -26 6 -68 6 -95 0 -48 0 -48 -37 -55 -145 -24 -231 -57 -284
-106 -26 -24 -26 -29 -34 -189 l-7 -164 -55 60 c-58 64 -103 149 -103 193 0
55 50 224 69 236 5 3 13 20 16 37 4 17 14 39 24 48 9 10 26 30 38 44 32 37 56
34 80 -10 12 -23 26 -36 34 -34 8 2 64 21 124 42 61 21 113 38 116 38 4 1 9
-20 13 -45z m-680 -145 l25 -12 -42 -37 c-56 -50 -88 -115 -96 -200 l-6 -69
-42 19 c-24 10 -43 25 -43 32 0 27 82 174 126 225 25 29 47 53 49 53 2 0 15
-5 29 -11z m976 -14 c0 -14 -4 -25 -10 -25 -5 0 -10 11 -10 25 0 14 5 25 10
25 6 0 10 -11 10 -25z m80 6 c0 -23 -16 -36 -25 -21 -9 14 1 40 15 40 5 0 10
-9 10 -19z m-894 -85 c-38 -131 -12 -221 100 -337 l64 -66 0 -151 c0 -127 2
-151 15 -154 10 -2 -9 -21 -49 -50 l-64 -46 -30 56 c-16 32 -50 97 -76 145
-50 96 -93 215 -102 286 -6 48 13 120 72 269 29 75 74 138 81 115 3 -7 -3 -37
-11 -67z m-56 58 c0 -1 -14 -34 -31 -75 -85 -205 -95 -285 -54 -415 31 -97 51
-142 122 -267 31 -54 55 -110 55 -125 0 -15 4 -31 8 -37 10 -13 18 -95 9 -95
-18 0 -84 108 -130 212 -17 40 -39 91 -49 113 -10 22 -41 110 -70 195 -47 139
-52 164 -52 242 0 70 4 95 23 133 32 64 103 126 140 123 16 -1 29 -3 29 -4z
m1142 -184 l3 -35 255 -2 c140 -2 263 -3 273 -3 9 0 17 -4 17 -10 0 -6 -102
-10 -285 -10 l-285 0 0 57 c0 62 16 64 22 3z m588 -80 c-11 -21 -60 -29 -60
-9 0 5 4 8 9 5 4 -3 17 1 27 9 27 20 36 18 24 -5z m-551 -39 c-14 -4 -30 19
-22 33 3 5 12 1 20 -10 10 -13 10 -20 2 -23z m331 9 c145 -44 264 -181 330
-380 12 -36 28 -72 36 -81 19 -21 18 -29 -7 -29 -38 0 -58 20 -99 103 -23 45
-58 99 -78 121 -82 85 -195 135 -325 143 l-88 6 -16 60 c-12 40 -23 61 -35 65
-10 2 -18 7 -18 11 0 11 253 -5 300 -19z m140 -6 c0 -29 -1 -29 -53 -2 l-42
22 40 6 c50 7 55 5 55 -26z m-595 3 c-22 -12 -71 -52 -108 -89 -71 -70 -75
-71 -23 -3 39 50 69 75 115 97 52 24 63 21 16 -5z m-1316 2 c17 -6 31 -12 31
-13 0 -7 -101 -204 -113 -220 -14 -19 -15 -19 -46 0 -17 10 -30 21 -29 24 66
132 114 220 119 220 3 0 20 -5 38 -11z m807 -58 c1 -38 7 -85 13 -104 10 -30
10 -40 -5 -62 -15 -23 -59 -44 -69 -33 -3 2 0 31 5 64 6 32 10 89 10 126 0 61
2 67 23 71 12 2 22 5 22 6 0 0 1 -30 1 -68z m57 27 c2 -18 12 -61 21 -95 15
-55 15 -65 2 -90 -16 -31 -53 -68 -103 -101 -41 -28 -51 -28 -45 3 2 14 10 25
18 25 28 0 63 24 80 55 15 28 16 40 6 90 -13 65 -16 128 -5 138 13 14 21 6 26
-25z m523 8 c-3 -13 1 -43 9 -66 21 -59 19 -64 -17 -82 -18 -9 -78 -56 -134
-104 -55 -49 -112 -94 -125 -101 -13 -7 -89 -19 -169 -29 -80 -9 -164 -18
-187 -21 -26 -3 -43 -1 -43 5 0 26 21 62 36 62 23 0 98 56 133 101 37 46 40
88 11 181 -11 34 -20 64 -20 66 0 1 77 2 171 2 l171 0 -36 -40 c-47 -52 -96
-151 -96 -194 0 -53 14 -50 43 10 31 63 91 132 162 184 75 55 100 63 91 26z
m-1565 -1 c40 -9 74 -17 76 -19 2 -1 -7 -20 -18 -42 l-22 -39 -111 3 c-68 2
-143 -2 -196 -11 -46 -8 -93 -12 -103 -8 -35 13 61 80 151 107 92 27 128 29
223 9z m2166 -39 l2 -49 -29 28 c-17 16 -30 39 -30 53 0 20 4 23 28 20 25 -3
27 -7 29 -52z m-477 -45 c12 -40 18 -77 13 -81 -4 -4 -20 -10 -34 -14 -22 -5
-28 -1 -37 22 -14 36 -43 135 -39 137 11 9 63 21 69 16 3 -3 16 -39 28 -80z
m-1460 43 c0 -8 -5 -12 -10 -9 -6 4 -8 11 -5 16 9 14 15 11 15 -7z m70 -209
c21 -60 49 -135 61 -165 17 -41 23 -75 23 -137 1 -46 0 -83 -1 -83 -1 0 -11
13 -22 29 -12 17 -23 52 -27 87 -11 116 -50 204 -131 301 -24 28 -43 57 -43
63 0 7 10 29 22 48 l22 36 28 -35 c16 -19 46 -83 68 -144z m-333 129 c-3 -3
-12 -4 -19 -1 -8 3 -5 6 6 6 11 1 17 -2 13 -5z m204 -101 l24 -26 -27 19 c-15
10 -28 22 -28 27 0 12 5 8 31 -20z m1547 -5 c6 -18 25 -80 42 -138 17 -58 35
-114 40 -125 11 -25 30 -96 30 -112 0 -7 -8 -13 -18 -13 -19 0 -23 11 -89 225
-13 44 -33 103 -43 132 -20 54 -20 55 22 62 3 0 11 -14 16 -31z m-1669 -7 c11
-7 -6 -48 -80 -197 -52 -103 -98 -189 -104 -191 -5 -1 -16 1 -23 6 -10 6 11
54 85 199 54 106 100 192 103 192 3 0 11 -4 19 -9z m1866 -46 c63 -28 117 -81
152 -148 37 -71 39 -188 5 -260 -52 -111 -166 -187 -279 -187 -74 0 -159 32
-214 80 l-44 39 150 1 c136 0 154 3 195 24 61 30 90 82 90 159 0 98 -59 175
-147 193 -24 5 -35 14 -43 38 -25 68 -28 85 -17 89 25 8 104 -6 152 -28z
m-1958 17 c10 -6 5 -23 -18 -70 -29 -56 -33 -61 -59 -56 -42 9 -127 -32 -156
-75 -28 -42 -33 -134 -10 -180 23 -44 77 -79 132 -86 40 -5 57 -2 93 17 25 13
54 35 65 50 27 38 33 126 12 183 -17 43 -17 45 9 99 15 31 30 56 34 56 4 0 21
-15 39 -32 84 -88 102 -231 44 -345 -35 -69 -109 -136 -162 -148 -16 -4 -32
-11 -35 -16 -4 -5 -35 -9 -70 -9 -125 0 -238 69 -290 177 -38 78 -41 183 -6
260 27 61 102 135 164 163 44 20 189 28 214 12z m1458 -47 c-13 -20 -26 -41
-28 -48 -4 -9 -7 -9 -17 0 -11 10 -5 19 26 47 21 20 40 36 41 36 1 0 -8 -16
-22 -35z m259 -13 c5 -18 7 -34 5 -36 -2 -2 -35 -6 -74 -10 l-70 -7 49 46 c27
25 56 45 65 43 8 -2 19 -18 25 -36z m-324 -52 c12 -8 9 -10 -13 -10 -16 0 -26
4 -22 10 8 12 16 12 35 0z m-137 -27 c-7 -2 -19 -2 -25 0 -7 3 -2 5 12 5 14 0
19 -2 13 -5z m487 0 c0 -5 -14 -21 -30 -37 -17 -16 -30 -33 -30 -38 0 -4 -110
-8 -245 -8 l-246 0 -24 -25 c-29 -28 -31 -43 -11 -71 13 -17 29 -19 145 -22
l130 -4 -15 -22 c-18 -28 -11 -49 21 -66 30 -16 52 -8 67 25 9 21 8 28 -7 45
-18 20 -18 20 73 20 l92 0 14 -34 c15 -35 60 -73 104 -86 24 -7 21 -8 -18 -9
-101 -2 -594 29 -633 40 -101 26 -161 148 -104 214 27 32 64 40 232 55 328 29
485 37 485 23z m-1810 -20 c0 -5 -18 -43 -40 -86 -22 -42 -40 -88 -40 -101 0
-24 32 -45 61 -39 15 4 99 142 99 163 0 25 20 6 31 -29 16 -55 4 -106 -36
-149 -32 -35 -36 -37 -99 -37 -58 0 -68 3 -95 29 -78 75 -62 194 32 237 43 19
87 25 87 12z m1082 -34 l-32 -31 -29 24 c-17 12 -30 26 -30 29 -1 4 27 7 61 8
l61 1 -31 -31z m911 -2 c62 -58 62 -149 1 -208 -33 -32 -40 -34 -100 -34 -62
0 -67 2 -99 36 -46 51 -54 105 -23 167 33 67 52 66 67 -3 7 -31 19 -68 27 -83
8 -15 14 -32 14 -39 0 -18 18 -25 49 -18 47 10 46 27 -6 198 -9 29 32 20 70
-16z m-977 -31 c8 -8 14 -30 14 -49 0 -27 -7 -41 -31 -61 -37 -31 -69 -33
-100 -5 -19 16 -20 19 -6 15 53 -17 69 -17 92 -2 27 18 34 61 15 97 -13 22 -5
25 16 5z m714 -56 l0 -30 -242 2 c-228 3 -243 4 -246 22 -2 10 2 22 10 27 7 5
118 9 246 9 l232 0 0 -30z m-755 -20 c-3 -5 -14 -10 -23 -10 -15 0 -15 2 -2
10 20 13 33 13 25 0z m-103 -55 l30 -25 -40 0 c-36 0 -39 2 -34 25 2 14 7 25
9 25 3 0 18 -11 35 -25z m208 -29 c0 -4 -7 -5 -16 -2 -9 3 -29 6 -45 6 l-30 0
28 24 28 25 17 -22 c10 -12 18 -26 18 -31z m-280 31 c0 -18 -49 -64 -82 -76
-28 -10 -28 -10 -28 34 l0 44 48 4 c26 2 50 4 55 5 4 1 7 -4 7 -11z m750 -31
c0 -22 -24 -38 -38 -24 -20 20 -14 38 13 38 15 0 25 -6 25 -14z m-475 -41 c0
-6 -62 -11 -160 -12 -144 -2 -158 -1 -140 12 16 13 47 15 160 13 85 -2 140 -7
140 -13z m206 -42 c55 -4 77 -9 64 -14 -27 -10 -435 -10 -460 1 -13 6 14 9 78
9 105 1 137 10 137 41 0 18 3 18 49 -6 36 -19 71 -27 132 -31z" id="node1" class="node"></path>
<path d="M1577 2394 c-16 -16 -7 -44 14 -44 15 0 20 5 17 22 -3 22 -19 33 -31
22z" id="node2" class="node"></path>
<path d="M2244 1286 c-3 -8 -4 -24 -2 -36 3 -21 4 -21 343 -22 l340 0 0 34 0
33 -338 3 c-286 2 -338 0 -343 -12z" id="node3" class="node"></path>
</g>
<g transform="translate(0.000000,271.000000) scale(0.100000,-0.100000)" fill="#75B0E2" stroke="none">


<path d="M1725 2690 c-38 -4 -83 -14 -100 -22 -33 -18 -78 -71 -89 -104 -8
-25 -6 -26 189 -55 220 -34 215 -34 215 -11 0 47 -91 115 -171 127 -25 4 -52
11 -60 16 -24 16 16 38 59 32 115 -16 189 -68 219 -154 10 -27 21 -49 26 -49
19 0 -25 104 -62 143 -29 33 -91 67 -119 67 -10 0 -22 4 -27 8 -6 4 -41 5 -80
2z" id="node6" class="node"></path>
<path d="M1540 2400 c0 -21 -5 -51 -12 -65 -9 -20 -8 -37 7 -84 l18 -60 24 16
c17 12 27 13 35 5 8 -8 4 -13 -16 -18 -33 -8 -33 -27 0 -53 29 -23 40 -20 76
24 33 40 118 207 118 233 0 5 -33 14 -72 21 -40 6 -84 14 -98 17 -25 5 -25 5
-5 -11 18 -15 18 -16 2 -11 -10 3 -31 6 -45 7 -24 0 -25 1 -7 9 19 8 19 9 -2
9 -20 1 -23 -4 -23 -39z m68 -28 c3 -17 -2 -22 -17 -22 -14 0 -21 6 -21 18 0
38 33 41 38 4z" id="node7" class="node"></path>
<path d="M1823 2308 c-12 -13 -37 -51 -57 -85 -20 -34 -41 -65 -46 -68 -22
-13 -8 -22 35 -21 25 1 40 3 34 5 -6 2 9 16 35 32 31 19 44 34 40 44 -3 8 1
22 10 30 9 9 16 32 16 51 0 29 -3 34 -23 34 -13 0 -33 -10 -44 -22z" id="node8" class="node"></path>
<path d="M1834 2155 c-10 -8 -14 -15 -8 -15 5 0 19 7 30 15 10 8 14 15 8 15
-5 0 -19 -7 -30 -15z" id="node9" class="node"></path>
<path d="M1766 2103 c-11 -3 -25 -10 -31 -17 -11 -11 -27 -56 -19 -56 2 0 22
18 44 40 22 22 37 39 33 39 -5 -1 -17 -4 -27 -6z" id="node10" class="node"></path>
<path d="M1870 2075 c0 -16 6 -25 15 -25 9 0 15 9 15 25 0 16 -6 25 -15 25 -9
0 -15 -9 -15 -25z" id="node11" class="node"></path>
<path d="M2180 1811 c-5 -11 -10 -45 -10 -75 l0 -56 199 0 c199 0 200 0 203
23 2 18 9 22 38 22 29 0 36 -4 38 -23 3 -22 4 -22 165 -20 l162 3 3 52 c6 100
36 93 -403 93 -370 0 -385 -1 -395 -19z" id="node12" class="node"></path>
<path d="M958 1650 c-12 -7 -18 -24 -18 -48 0 -41 -21 -126 -38 -159 -9 -16
-8 -24 6 -36 25 -22 86 -47 117 -47 37 0 103 36 109 60 3 11 9 29 12 40 4 15
1 20 -15 20 -30 0 -78 77 -62 102 18 29 13 48 -16 59 -45 17 -77 20 -95 9z" id="node13" class="node"></path>
<path d="M2174 1647 c-7 -19 2 -425 11 -469 l7 -38 257 0 c209 -1 260 -3 275
-15 29 -22 218 -21 240 1 14 14 16 49 14 272 l-3 257 -162 3 -162 2 -3 -27
c-3 -25 -7 -28 -38 -28 -28 0 -35 4 -40 25 l-6 25 -192 3 c-154 2 -193 0 -198
-11z m751 -385 l0 -34 -340 0 c-339 1 -340 1 -343 22 -8 52 -18 50 345 48
l338 -3 0 -33z" id="node14" class="node"></path>
<path d="M1175 1645 c-5 -2 -22 -6 -37 -9 -21 -5 -30 -15 -37 -42 -16 -57 16
-105 67 -103 14 0 13 2 -3 10 -44 22 -55 79 -15 79 10 0 33 -6 51 -14 29 -12
37 -12 53 -1 16 12 17 18 6 49 -10 32 -16 36 -43 35 -18 0 -36 -2 -42 -4z" id="node15" class="node"></path>
<path d="M912 1615 c0 -16 2 -22 5 -12 2 9 2 23 0 30 -3 6 -5 -1 -5 -18z" id="node16" class="node"></path>
<path d="M856 1571 c-17 -33 -21 -67 -8 -75 9 -5 36 93 28 101 -3 3 -12 -9
-20 -26z" id="node17" class="node"></path>
<path d="M891 1530 c-7 -25 -14 -53 -17 -62 -3 -10 -3 -18 0 -18 8 0 38 100
33 113 -2 6 -10 -8 -16 -33z" id="node18" class="node"></path>
<path d="M1160 1544 c0 -8 9 -14 20 -14 11 0 20 4 20 9 0 5 -9 11 -20 14 -13
3 -20 0 -20 -9z" id="node19" class="node"></path>

<path d="M836 1327 c-44 -51 -126 -198 -126 -225 0 -7 19 -22 43 -32 l42 -19
6 69 c8 85 40 150 96 200 l42 37 -25 12 c-14 6 -27 11 -29 11 -2 0 -24 -24
-49 -53z" id="node21" class="node"></path>
<path d="M1870 1355 c0 -14 5 -25 10 -25 6 0 10 11 10 25 0 14 -4 25 -10 25
-5 0 -10 -11 -10 -25z" id="node22" class="node"></path>
<path d="M1944 1365 c-7 -17 4 -37 17 -30 12 8 12 45 -1 45 -6 0 -13 -7 -16
-15z" id="node23" class="node"></path>
<path d="M1059 1328 c-25 -27 -64 -118 -106 -248 -18 -55 -23 -87 -19 -121 9
-71 52 -190 102 -286 26 -48 60 -113 76 -145 l30 -56 64 46 c40 29 59 48 49
50 -13 3 -15 27 -15 154 l0 151 -64 66 c-112 116 -138 206 -100 337 20 70 15
87 -17 52z" id="node24" class="node"></path>
<path d="M919 1301 c-68 -60 -91 -115 -91 -219 0 -78 5 -103 52 -242 29 -85
60 -173 70 -195 10 -22 32 -73 49 -113 46 -104 112 -212 130 -212 9 0 1 82 -9
95 -4 6 -8 22 -8 37 0 15 -24 71 -55 125 -71 125 -91 170 -122 267 -41 130
-31 210 54 415 17 41 31 74 31 75 0 1 -13 3 -29 4 -20 2 -40 -8 -72 -37z" id="node25" class="node"></path>
<path d="M2140 1147 l0 -57 285 0 c183 0 285 4 285 10 0 6 -8 10 -17 10 -10 0
-133 1 -273 3 l-255 2 -3 35 c-6 61 -22 59 -22 -3z" id="node26" class="node"></path>

<path d="M2726 1075 c-10 -8 -23 -12 -27 -9 -5 3 -9 0 -9 -5 0 -20 49 -12 60
9 12 23 3 25 -24 5z" id="node28" class="node"></path>
<path d="M2177 1064 c-8 -14 8 -37 22 -33 8 3 8 10 -2 23 -8 11 -17 15 -20 10z" id="node29" class="node"></path>
<path d="M2230 1059 c0 -4 8 -9 18 -11 12 -4 23 -25 35 -65 l16 -60 88 -6
c130 -8 243 -58 325 -143 20 -22 55 -76 78 -121 41 -83 61 -103 99 -103 25 0
26 8 7 29 -8 9 -24 45 -36 81 -66 199 -185 336 -330 380 -47 14 -300 30 -300
19z" id="node30" class="node"></path>
<path d="M2615 1060 l-40 -6 42 -22 c52 -27 53 -27 53 2 0 31 -5 33 -55 26z" id="node31" class="node"></path>
<path d="M2059 1042 c-46 -22 -76 -47 -115 -97 -52 -68 -48 -67 23 3 37 37 86
77 108 89 47 26 36 29 -16 5z" id="node32" class="node"></path>
<path d="M660 943 c-30 -60 -56 -110 -58 -113 -1 -3 12 -14 29 -24 31 -19 32
-19 46 0 12 16 113 213 113 220 0 3 -61 24 -69 24 -4 0 -31 -48 -61 -107z" id="node33" class="node"></path>
<path d="M1543 1043 c-21 -4 -23 -10 -23 -71 0 -37 -4 -94 -10 -126 -5 -33 -8
-62 -5 -64 10 -11 54 10 69 33 15 22 15 32 5 62 -6 19 -12 66 -13 104 0 38 -1
68 -1 68 0 -1 -10 -4 -22 -6z" id="node34" class="node"></path>
<path d="M1597 1033 c-11 -10 -8 -73 5 -138 10 -50 9 -62 -6 -90 -17 -31 -52
-55 -80 -55 -8 0 -16 -11 -18 -25 -6 -31 4 -31 45 -3 50 33 87 70 103 101 13
25 13 35 -2 90 -9 34 -19 77 -21 95 -5 31 -13 39 -26 25z" id="node35" class="node"></path>
<path d="M2120 1033 c-29 -12 -116 -81 -157 -126 -24 -26 -55 -71 -70 -101
-29 -60 -43 -63 -43 -10 0 43 49 142 96 194 l36 40 -171 0 c-94 0 -171 -1
-171 -2 0 -2 9 -32 20 -66 29 -93 26 -135 -11 -181 -35 -45 -110 -101 -133
-101 -15 0 -36 -36 -36 -62 0 -6 17 -8 43 -5 23 3 107 12 187 21 80 10 156 22
169 29 13 7 70 52 125 101 56 48 116 95 134 104 36 18 38 23 17 82 -8 23 -12
53 -9 66 6 24 1 27 -26 17z" id="node36" class="node"></path>
<path d="M358 1006 c-90 -27 -186 -94 -151 -107 10 -4 57 0 103 8 53 9 128 13
196 11 l111 -3 22 39 c11 22 20 41 18 42 -8 8 -152 34 -185 33 -20 0 -72 -10
-114 -23z" id="node37" class="node"></path>
<path d="M2690 1008 c0 -14 13 -37 30 -53 l29 -28 -2 49 c-2 45 -4 49 -29 52
-24 3 -28 0 -28 -20z" id="node38" class="node"></path>
<path d="M2205 1007 c-16 -5 -31 -11 -32 -12 -4 -2 25 -101 39 -137 9 -23 15
-27 37 -22 14 4 30 10 34 14 8 7 -28 149 -41 161 -4 4 -20 2 -37 -4z" id="node39" class="node"></path>
<path d="M795 981 c-3 -5 -1 -12 5 -16 5 -3 10 1 10 9 0 18 -6 21 -15 7z" id="node40" class="node"></path>
<path d="M762 908 c-12 -19 -22 -41 -22 -48 0 -6 19 -35 43 -63 81 -97 120
-185 131 -301 4 -35 15 -70 27 -87 11 -16 21 -29 22 -29 1 0 2 37 1 83 0 62
-6 96 -23 137 -12 30 -40 105 -61 165 -22 61 -52 125 -68 144 l-28 35 -22 -36z" id="node41" class="node"></path>
<path d="M528 893 c7 -3 16 -2 19 1 4 3 -2 6 -13 5 -11 0 -14 -3 -6 -6z" id="node42" class="node"></path>
<path d="M720 813 c0 -5 13 -17 28 -27 l27 -19 -24 26 c-26 28 -31 32 -31 20z" id="node43" class="node"></path>
<path d="M2258 813 c-16 -4 -16 -8 2 -56 10 -29 30 -88 43 -132 66 -214 70
-225 89 -225 10 0 18 6 18 13 0 16 -19 87 -30 112 -5 11 -23 67 -40 125 -17
58 -36 120 -42 138 -5 17 -13 31 -16 31 -4 -1 -15 -3 -24 -6z" id="node44" class="node"></path>
<path d="M507 598 c-74 -145 -95 -193 -85 -199 7 -5 18 -7 23 -6 6 2 52 88
104 191 74 149 91 190 80 197 -8 5 -16 9 -19 9 -3 0 -49 -86 -103 -192z" id="node45" class="node"></path>
<path d="M2343 763 c-11 -4 -8 -21 17 -89 8 -24 19 -33 43 -38 88 -18 147 -95
147 -193 0 -77 -29 -129 -90 -159 -41 -21 -59 -24 -195 -24 l-150 -1 44 -39
c160 -140 401 -87 493 107 34 72 32 189 -5 260 -35 67 -89 120 -152 148 -48
22 -127 36 -152 28z" id="node46" class="node"></path>
<path d="M323 740 c-62 -28 -137 -102 -164 -163 -35 -77 -32 -182 6 -260 52
-108 165 -177 290 -177 35 0 66 4 70 9 3 5 19 12 35 16 53 12 127 79 162 148
58 114 40 257 -44 345 -18 17 -35 32 -39 32 -4 0 -19 -25 -34 -56 -26 -54 -26
-56 -9 -99 21 -57 15 -145 -12 -183 -11 -15 -40 -37 -65 -50 -36 -19 -53 -22
-93 -17 -55 7 -109 42 -132 86 -23 46 -18 138 10 180 29 43 114 84 156 75 26
-5 30 0 59 56 23 47 28 64 18 70 -25 16 -170 8 -214 -12z" id="node47" class="node"></path>
<path d="M1976 704 c-31 -28 -37 -37 -26 -47 10 -9 13 -9 17 0 2 7 15 28 28
48 14 19 23 35 22 35 -1 0 -20 -16 -41 -36z" id="node48" class="node"></path>
<path d="M2164 685 l-49 -46 70 7 c39 4 72 8 74 10 9 9 -16 69 -30 72 -9 2
-38 -18 -65 -43z" id="node49" class="node"></path>
<path d="M1895 640 c-4 -6 6 -10 22 -10 22 0 25 2 13 10 -19 12 -27 12 -35 0z" id="node50" class="node"></path>
<path d="M1768 613 c6 -2 18 -2 25 0 6 3 1 5 -13 5 -14 0 -19 -2 -12 -5z" id="node51" class="node"></path>
<path d="M2020 609 c-390 -31 -425 -36 -457 -74 -57 -66 3 -188 104 -214 39
-11 532 -42 633 -40 39 1 42 2 18 9 -44 13 -89 51 -104 86 l-14 34 -92 0 c-91
0 -91 0 -73 -20 15 -17 16 -24 7 -45 -15 -33 -37 -41 -67 -25 -32 17 -39 38
-21 66 l15 22 -130 4 c-116 3 -132 5 -145 22 -20 28 -18 43 11 71 l24 25 246
0 c135 0 245 4 245 8 0 5 13 22 30 38 16 16 30 32 30 37 0 8 -129 7 -260 -4z" id="node52" class="node"></path>
<path d="M383 581 c-94 -43 -110 -162 -32 -237 27 -26 37 -29 95 -29 63 0 67
2 99 37 40 43 52 94 36 149 -11 35 -31 54 -31 29 0 -21 -84 -159 -99 -163 -29
-6 -61 15 -61 39 0 13 18 59 40 101 22 43 40 81 40 86 0 13 -44 7 -87 -12z" id="node53" class="node"></path>
<path d="M1461 581 c0 -3 13 -17 30 -29 l29 -24 32 31 31 31 -61 -1 c-34 -1
-62 -4 -61 -8z" id="node54" class="node"></path>
<path d="M2393 573 c52 -171 53 -188 6 -198 -31 -7 -49 0 -49 18 0 7 -6 24
-14 39 -8 15 -20 52 -27 83 -15 69 -34 70 -67 3 -31 -62 -23 -116 23 -167 32
-34 37 -36 99 -36 60 0 67 2 100 34 61 59 61 150 -1 208 -38 36 -79 45 -70 16z" id="node55" class="node"></path>
<path d="M1470 521 c19 -36 12 -79 -15 -97 -23 -15 -39 -15 -92 2 -14 4 -13 1
6 -15 31 -28 63 -26 100 5 24 20 31 34 31 61 0 19 -6 41 -14 49 -21 20 -29 17
-16 -5z" id="node56" class="node"></path>
<path d="M1722 491 c-8 -5 -12 -17 -10 -27 3 -18 18 -19 246 -22 l242 -2 0 30
0 30 -232 0 c-128 0 -239 -4 -246 -9z" id="node57" class="node"></path>

<path d="M1420 450 c-13 -8 -13 -10 2 -10 9 0 20 5 23 10 8 13 -5 13 -25 0z" id="node59" class="node"></path>
<path d="M1298 395 c-5 -23 -2 -25 34 -25 l40 0 -30 25 c-17 14 -32 25 -35 25
-2 0 -7 -11 -9 -25z" id="node60" class="node"></path>
<path d="M1487 394 l-28 -24 30 0 c16 0 36 -3 45 -6 21 -8 20 5 -2 33 l-17 22
-28 -25z" id="node61" class="node"></path>
<path d="M1208 403 l-48 -4 0 -44 c0 -44 0 -44 28 -34 33 12 82 58 82 76 0 7
-3 12 -7 11 -5 -1 -29 -3 -55 -5z" id="node62" class="node"></path>
<path d="M1970 367 c0 -23 22 -38 37 -26 21 18 15 39 -12 39 -14 0 -25 -6 -25
-13z" id="node63" class="node"></path>
<path d="M1245 325 c-18 -13 -4 -14 140 -12 203 3 218 21 20 25 -113 2 -144 0
-160 -13z" id="node64" class="node"></path>
<path d="M1570 320 c0 -31 -32 -40 -137 -41 -64 0 -91 -3 -78 -9 25 -11 433
-11 460 -1 13 5 -9 10 -64 14 -61 4 -96 12 -132 31 -46 24 -49 24 -49 6z" id="node65" class="node"></path>
<path d="M2358 3 c7 -3 16 -2 19 1 4 3 -2 6 -13 5 -11 0 -14 -3 -6 -6z" id="node66" class="node"></path>
</g>
</svg>